<?xml version="1.0" encoding="UTF-8"?>
<svg id="Layer_1" xmlns="http://www.w3.org/2000/svg" version="1.1" viewBox="0 0 1668 1668">
  <!-- Generator: Adobe Illustrator 29.5.1, SVG Export Plug-In . SVG Version: 2.1.0 Build 141)  -->
  <defs>
    <style>
      .st0 {
        fill: #fefefe;
      }

      .st1 {
        fill: #014cb0;
      }
    </style>
  </defs>
  <path class="st1" d="M872.1785119,0c4.2739053,1.0717984,10.0638286,1.6604806,14.506921,1.9898296,425.3935866,31.5327527,747.957496,353.9230839,779.3251837,779.4999954.3273288,4.4409902.9193055,10.2371529,1.9893833,14.5101751v76c-1.071558,4.274864-1.6601082,10.0660861-1.9893833,14.5101751-31.5256811,425.4890073-353.8437127,748.1252715-779.3251837,779.4999954-4.4399942.3274023-10.2348571.9195117-14.506921,1.9898296h-75.9829561c-4.2739053-1.0717984-10.0638286-1.6604806-14.506921-1.9898296C356.2950482,1634.4774177,33.7311388,1312.0870865,2.3634511,886.5101751c-.3273288-4.4409902-.9193055-10.2371529-1.9893833-14.5101751.875984-25.0958045-1.1757386-50.9978952,0-76C20.5681199,366.5730683,366.8418795,20.1996663,796.1955558,0h75.9829561ZM771.9957179,431.2937201c-316.2543636,3.8341461-506.3737356,357.1902808-335.1349599,624.6216807,152.4518729,238.0910376,496.7019927,248.5148028,665.9096711,24.2282409l308.6450685-135.2856989c49.1182582-25.3840771,53.0139431-91.5064522,8.1654752-122.8831923l-285.9533583-180.9824991c-73.7721748-130.2989023-210.6731362-211.5286972-361.6318966-209.6985313Z"/>
  <path class="st0" d="M796.1955558,0C366.8418795,20.1996663,20.5681199,366.5730683.3740677,796V0h795.8214881Z"/>
  <path class="st0" d="M872.1785119,0h795.8214881v796c-1.0700778-4.2730222-1.6620545-10.0691849-1.9893833-14.5101751C1634.6429289,355.9129135,1312.0790196,33.5225823,886.6854329,1.9898296c-4.4430924-.329349-10.2330157-.9180312-14.506921-1.9898296Z"/>
  <path class="st0" d="M796.1955558,1668H.3740677v-796c1.0700778,4.2730222,1.6620545,10.0691849,1.9893833,14.5101751,31.3676877,425.5769115,353.9315971,747.9672426,779.3251837,779.4999954,4.4430924.329349,10.2330157.9180312,14.506921,1.9898296Z"/>
  <path class="st0" d="M1668,872v796h-795.8214881c4.2720639-1.0703179,10.0669268-1.6624273,14.506921-1.9898296,425.4814711-31.3747239,747.7995026-354.010988,779.3251837-779.4999954.3292751-4.444089.9178253-10.2353111,1.9893833-14.5101751Z"/>
  <path class="st0" d="M771.9957179,431.2937201c150.9587604-1.8301659,287.8597218,79.399629,361.6318966,209.6985313l285.9533583,180.9824991c44.8484679,31.37674,40.952783,97.4991152-8.1654752,122.8831923l-308.6450685,135.2856989c-169.2076784,224.2865619-513.4577982,213.8627967-665.9096711-24.2282409-171.2387757-267.4313998,18.8805963-620.7875345,335.1349599-624.6216807ZM779.9983029,714.2991139c-70.0731846,5.7321201-129.4021396,66.8572523-132.8112082,137.1592962-2.3686691,48.8468544,53.4892956,48.8805171,58.0122622,9.0249796,2.1832314-19.2382277,1.7909283-28.2412704,12.2083589-45.7889027,37.5508944-63.252573,132.6814408-55.0562211,159.2516998,13.3236042,4.8404117,12.4570297,4.1233188,20.0393954,5.5334603,32.4652985,4.4142312,38.8973808,54.3718894,36.1034135,57.9765192,3.022776,1.6263646-14.9255767-3.2600006-37.5177964-8.2593046-51.7511427-22.3239411-63.5577242-84.7238838-102.9520077-151.9117876-97.4559091ZM1167.1224981,722.0000994c26.4553753,94.0046092,19.6742404,195.0675829-20.5173157,283.9779124l237.1351077-103.8014845c16.625565-5.4100559,22.7540776-23.568282,10.2628301-36.6181867l-226.880622-143.5582412Z"/>
  <path class="st1" d="M779.9983029,714.2991139c67.1879038-5.4960986,129.5878466,33.8981849,151.9117876,97.4559091,4.999304,14.2333463,9.8856692,36.825566,8.2593046,51.7511427-3.6046298,33.0806375-53.562288,35.8746048-57.9765192-3.022776-1.4101415-12.4259031-.6930486-20.0082688-5.5334603-32.4652985-26.570259-68.3798253-121.7008054-76.5761772-159.2516998-13.3236042-10.4174305,17.5476323-10.0251274,26.550675-12.2083589,45.7889027-4.5229667,39.8555375-60.3809313,39.8218748-58.0122622-9.0249796,3.4090686-70.3020438,62.7380236-131.4271761,132.8112082-137.1592962Z"/>
  <path class="st1" d="M1167.1224981,722.0000994l226.880622,143.5582412c12.4912475,13.0499047,6.3627349,31.2081308-10.2628301,36.6181867l-237.1351077,103.8014845c40.1915561-88.9103295,46.9726911-189.9733033,20.5173157-283.9779124Z"/>
</svg>